HIERARCHY
ROOT Hips
{
	OFFSET 0.000000 0.000000 0.000000
	CHANNELS 6 Xposition Yposition Zposition Zrotation Yrotation Xrotation 
	JOINT LHipJoint
	{
		OFFSET 0.000000 0.000000 0.000000
		CHANNELS 3 Zrotation Yrotation Xrotation
		JOINT LeftUpLeg
		{
			OFFSET 1.363060 -1.794630 0.839290
			CHANNELS 3 Zrotation Yrotation Xrotation
			JOINT LeftLeg
			{
				OFFSET 2.448110 -6.726130 0.000000
				CHANNELS 3 Zrotation Yrotation Xrotation
				JOINT LeftFoot
				{
					OFFSET 2.562200 -7.039590 0.000000
					CHANNELS 3 Zrotation Yrotation Xrotation
					JOINT LeftToeBase
					{
						OFFSET 0.157640 -0.433110 2.322550
						CHANNELS 3 Zrotation Yrotation Xrotation
						End Site
						{
							OFFSET 0.000000 0.000000 0.000000
						}
					}
				}
			}
		}
	}
	JOINT RHipJoint
	{
		OFFSET 0.000000 0.000000 0.000000
		CHANNELS 3 Zrotation Yrotation Xrotation
		JOINT RightUpLeg
		{
			OFFSET -1.305520 -1.794630 0.839290
			CHANNELS 3 Zrotation Yrotation Xrotation
			JOINT RightLeg
			{
				OFFSET -2.542530 -6.985550 0.000000
				CHANNELS 3 Zrotation Yrotation Xrotation
				JOINT RightFoot
				{
					OFFSET -2.568260 -7.056230 0.000000
					CHANNELS 3 Zrotation Yrotation Xrotation
					JOINT RightToeBase
					{
						OFFSET -0.164730 -0.452590 2.363150
						CHANNELS 3 Zrotation Yrotation Xrotation
						End Site
						{
							OFFSET 0.000000 0.000000 0.000000
						}
					}
				}
			}
		}
	}
	JOINT LowerBack
	{
		OFFSET 0.000000 0.000000 0.000000
		CHANNELS 3 Zrotation Yrotation Xrotation
		JOINT Spine
		{
			OFFSET 0.028270 2.035590 -0.193380
			CHANNELS 3 Zrotation Yrotation Xrotation
			JOINT Spine1
			{
				OFFSET 0.056720 2.048850 -0.042750
				CHANNELS 3 Zrotation Yrotation Xrotation
				JOINT Neck
				{
					OFFSET 0.000000 0.000000 0.000000
					CHANNELS 3 Zrotation Yrotation Xrotation
					JOINT Neck1
					{
						OFFSET -0.054170 1.746240 0.172020
						CHANNELS 3 Zrotation Yrotation Xrotation
						JOINT Head
						{
							OFFSET 0.104070 1.761360 -0.123970
							CHANNELS 3 Zrotation Yrotation Xrotation
							End Site
							{
								OFFSET 0.000000 0.000000 0.000000
							}
						}
					}
				}
				JOINT LeftShoulder
				{
					OFFSET 0.000000 0.000000 0.000000
					CHANNELS 3 Zrotation Yrotation Xrotation
					JOINT LeftArm
					{
						OFFSET 3.362410 1.200890 -0.311210
						CHANNELS 3 Zrotation Yrotation Xrotation
						JOINT LeftForeArm
						{
							OFFSET 4.983000 -0.000000 -0.000000
							CHANNELS 3 Zrotation Yrotation Xrotation
							JOINT LeftHand
							{
								OFFSET 3.483560 -0.000000 -0.000000
								CHANNELS 3 Zrotation Yrotation Xrotation
								JOINT LeftFingerBase
								{
									OFFSET 0.000000 0.000000 0.000000
									CHANNELS 3 Zrotation Yrotation Xrotation
									JOINT LeftHandIndex1
									{
										OFFSET 0.715260 -0.000000 -0.000000
										CHANNELS 3 Zrotation Yrotation Xrotation
										End Site
										{
											OFFSET 0.000000 0.000000 0.000000
										}
									}
								}
								JOINT LThumb
								{
									OFFSET 0.000000 0.000000 0.000000
									CHANNELS 3 Zrotation Yrotation Xrotation
									End Site
									{
										OFFSET 0.000000 0.000000 0.000000
									}
								}
							}
						}
					}
				}
				JOINT RightShoulder
				{
					OFFSET 0.000000 0.000000 0.000000
					CHANNELS 3 Zrotation Yrotation Xrotation
					JOINT RightArm
					{
						OFFSET -3.136600 1.374050 -0.404650
						CHANNELS 3 Zrotation Yrotation Xrotation
						JOINT RightForeArm
						{
							OFFSET -5.241900 -0.000000 -0.000000
							CHANNELS 3 Zrotation Yrotation Xrotation
							JOINT RightHand
							{
								OFFSET -3.444170 -0.000000 -0.000000
								CHANNELS 3 Zrotation Yrotation Xrotation
								JOINT RightFingerBase
								{
									OFFSET 0.000000 0.000000 0.000000
									CHANNELS 3 Zrotation Yrotation Xrotation
									JOINT RightHandIndex1
									{
										OFFSET -0.622530 -0.000000 -0.000000
										CHANNELS 3 Zrotation Yrotation Xrotation
										End Site
										{
											OFFSET 0.000000 0.000000 0.000000
										}
									}
								}
								JOINT RThumb
								{
									OFFSET 0.000000 0.000000 0.000000
									CHANNELS 3 Zrotation Yrotation Xrotation
									End Site
									{
										OFFSET 0.000000 0.000000 0.000000
									}
								}
							}
						}
					}
				}
			}
		}
	}
}
MOTION
Frames: 7
Frame Time: 0.008333
3.092287 17.546758 -17.218489 0.627177 -4.703717 -2.224968 -6.444372 -2.602725 1.772323 -16.607688 3.954058 -14.918389 1.209877 10.877808 30.788218 2.963064 -7.872272 1.484433 0.014500 -0.776800 -2.135000 2.966513 1.975817 -1.479744 11.376549 0.434732 -30.306537 -6.502662 -16.241039 49.218274 0.611405 -4.413267 -2.138073 -0.001700 0.264500 -0.726800 0.639389 3.556147 4.201879 -0.019502 4.264972 -2.917364 0.220431 2.578031 0.664822 -7.131941 -3.465933 -9.070546 7.145130 -4.021011 13.128724 4.795900 -2.191600 9.355200 -6.991068 3.626482 -2.838681 -81.951637 21.487371 -11.569138 3.792813 -12.103686 0.416511 0.949109 -2.889084 27.568188 -8.467287 38.158837 -6.854100 -7.125000 0.000000 0.000000 -54.630100 61.571200 -26.176400 1.527240 -2.275392 -0.407199 78.291799 38.133027 21.067213 -24.807663 34.562192 -8.558181 0.329378 -0.490761 -27.754916 -18.452177 15.269455 -5.237100 7.125000 0.000000 0.000000 6.150000 -13.347000 4.591300 
3.097953 17.564068 -17.058269 0.860777 -3.829145 -1.993923 -6.502570 -2.564305 1.894949 -16.925676 3.645861 -14.195680 1.043196 10.623070 30.002455 2.982535 -7.939378 1.350148 0.056700 -1.536200 -4.225600 3.007779 2.020648 -1.559369 10.827817 0.447343 -31.270919 -5.916273 -15.793087 47.128514 0.839917 -5.334730 -2.902564 -0.027100 1.062400 -2.920600 0.414640 3.424125 4.108852 -0.086183 4.081955 -3.006645 -0.024365 2.490870 0.326087 -7.043241 -3.680018 -8.960669 7.229319 -4.344363 13.128563 4.806000 -2.331300 9.434800 -7.046711 3.604586 -2.927190 -81.191844 22.365773 -11.852613 3.694565 -11.960190 0.476616 0.917830 -2.937908 28.485453 -8.483544 38.535353 -6.937800 -7.125000 0.000000 0.000000 -55.221700 61.806400 -26.863000 1.485615 -2.235741 -0.391035 77.675436 38.525683 20.145888 -25.165425 34.823325 -8.765348 0.316798 -0.511361 -27.762027 -18.355640 15.643908 -5.325000 7.125000 0.000000 0.000000 6.243200 -12.956100 4.713200 
3.114439 17.590548 -16.895680 1.021378 -2.666647 -1.937845 -6.567424 -2.504148 2.012209 -17.178313 3.180549 -13.149616 0.887795 10.379897 29.235901 3.018935 -8.063586 1.047782 0.113900 -2.175900 -5.992000 3.033572 2.050548 -1.641450 10.277085 0.093407 -31.872028 -5.250778 -15.241424 44.695480 1.047835 -6.134087 -3.128843 -0.018600 0.881700 -2.423400 0.215978 3.154291 3.980026 -0.075169 3.717962 -3.009673 0.022072 2.297936 0.418552 -6.889277 -3.800510 -9.189139 7.011257 -4.525677 13.200916 4.613900 -2.413600 9.542200 -7.045844 3.592418 -2.952531 -80.703319 22.710802 -12.322334 3.486907 -11.589842 0.559131 0.895377 -2.965633 29.055972 -8.468768 38.861008 -6.983800 -7.125000 0.000000 0.000000 -55.700400 62.014600 -27.447100 1.512569 -2.271090 -0.393098 76.840140 39.135094 19.435858 -25.567793 35.155730 -9.006655 0.311777 -0.523464 -27.829564 -18.477730 16.127396 -5.516500 7.125000 0.000000 0.000000 6.188800 -12.431600 4.739800 
3.121858 17.618677 -16.737212 0.505138 -1.817866 -2.008775 -6.625438 -2.390678 2.156515 -16.606665 2.669951 -11.923392 0.725335 10.105093 28.403306 3.082804 -8.252743 1.184249 0.048500 -1.420800 -3.907500 3.066638 2.069720 -1.730021 10.458951 0.209401 -32.116460 -4.581275 -14.664840 42.237649 1.347789 -7.248359 -3.423730 -0.008400 0.591200 -1.624600 0.609463 2.969447 3.940599 0.025478 3.492349 -2.949702 0.284355 2.164768 0.676067 -7.104546 -3.820468 -9.183857 7.110672 -4.507153 12.996211 4.717100 -2.406900 9.408600 -7.025293 3.616156 -2.921726 -80.582955 22.729622 -13.178752 3.325592 -11.284254 0.620148 0.856593 -2.984421 30.012661 -8.526267 39.069712 -7.057800 -7.125000 0.000000 0.000000 -56.053400 62.121200 -27.820600 1.546626 -2.314049 -0.377971 75.670026 39.865836 18.842843 -25.951500 35.478741 -9.238404 0.322482 -0.510884 -28.307011 -18.644473 16.044591 -5.544100 7.125000 0.000000 0.000000 6.067200 -12.504300 4.636400 
3.117530 17.630423 -16.582557 0.277710 -1.167415 -2.107062 -6.672932 -2.286758 2.312910 -16.346531 2.474818 -10.814489 0.575084 9.834776 27.584377 3.125654 -8.375092 1.198527 0.066100 -1.659000 -4.564100 3.115776 2.096073 -1.820541 10.316674 0.572871 -32.226627 -3.912879 -14.024918 39.657776 1.729049 -8.618654 -3.853964 -0.015200 0.797100 -2.190800 0.670155 2.881538 4.040488 0.065266 3.392594 -2.911483 0.470336 2.095929 0.742491 -7.420507 -3.922028 -9.054864 7.492269 -4.604219 12.725828 4.996600 -2.439300 9.277600 -7.047761 3.634960 -2.900293 -80.476775 22.767573 -14.943202 3.242780 -11.083919 0.652175 0.768965 -3.006193 32.154150 -8.647949 39.048852 -7.144100 -7.125000 0.000000 0.000000 -56.108000 62.057000 -27.774600 1.538174 -2.308618 -0.353617 74.665014 40.497161 18.100833 -26.241839 35.688721 -9.409235 0.333382 -0.491948 -29.068731 -18.579381 15.666093 -5.401600 7.125000 0.000000 0.000000 6.087300 -12.916400 4.599200 
3.115572 17.644539 -16.426974 0.525598 -0.458801 -2.175999 -6.713834 -2.191520 2.450541 -16.571896 1.871349 -9.560678 0.436531 9.594572 26.856527 3.147289 -8.513571 1.128439 0.044600 -1.362600 -3.747000 3.184889 2.119657 -1.888603 9.600718 0.936218 -32.295028 -3.260668 -13.319430 36.964791 2.137224 -10.030284 -4.264018 -0.010200 0.653500 -1.795700 0.347599 2.854154 4.171906 -0.005501 3.360131 -2.942015 0.277756 2.074953 0.455852 -7.251555 -4.113741 -8.668773 7.722661 -4.932707 12.575922 5.060500 -2.563000 9.179700 -7.103462 3.618782 -2.931835 -79.686489 23.255622 -15.339640 3.213531 -11.078635 0.673941 0.736764 -3.042528 33.193187 -8.825304 39.165550 -7.299500 -7.125000 0.000000 0.000000 -56.453400 62.071900 -28.026700 1.501626 -2.272625 -0.320164 74.048451 40.617971 17.027044 -26.530747 35.888832 -9.589898 0.345709 -0.493050 -29.580902 -18.826349 15.605301 -5.462600 7.125000 0.000000 0.000000 5.916800 -12.943200 4.465600 
3.112172 17.670400 -16.273143 0.099543 0.121419 -1.954511 -6.768141 -2.088352 2.567354 -15.979433 0.958615 -8.533189 0.276808 9.316889 26.062953 3.204794 -8.765736 1.717226 0.025700 1.034100 2.842500 3.250585 2.145419 -1.967528 9.669050 1.562446 -32.543918 -2.636464 -12.592278 34.293508 2.642261 -11.748735 -4.469933 -0.011200 0.682700 -1.876100 0.692898 2.618570 4.041981 0.062683 3.062923 -2.959397 0.383429 1.913844 0.490285 -7.527878 -4.077820 -8.809471 7.885816 -4.825788 12.504920 5.236000 -2.518000 9.205500 -7.088494 3.621111 -2.978902 -79.625624 23.673393 -14.821163 3.322491 -11.382351 0.657537 0.775782 -3.061168 32.423141 -8.854612 39.469740 -7.373900 -7.125000 0.000000 0.000000 -56.964000 62.257200 -28.614900 1.492950 -2.278076 -0.319008 73.485311 41.176443 16.723330 -26.752770 36.044219 -9.725801 0.356464 -0.510236 -29.825841 -19.378134 16.132971 -5.818000 7.125000 0.000000 0.000000 5.574700 -12.306400 4.279200 
